HIERARCHY
ROOT Hips
{
	OFFSET 0.00000 0.00000 0.00000
	CHANNELS 6 Xposition Yposition Zposition Yrotation Zrotation Xrotation 
	JOINT Lumbar
	{
		OFFSET 0 0 0
		CHANNELS 3 Zrotation Xrotation Yrotation
		JOINT Neck
		{
			OFFSET 0.00 0.2701 0.00
			CHANNELS 3 Zrotation Xrotation Yrotation
			End Site
			{
				OFFSET 0.00 0.1379 0.00
			}
		}
		JOINT RightShoulder
		{
			OFFSET 0.0119 0.2289 0.1181
			CHANNELS 3 Zrotation Xrotation Yrotation
			JOINT RightElbow
			{
				OFFSET 0.00 -0.1475 0.00
				CHANNELS 2 Zrotation Yrotation
				JOINT RightWrist
				{
					OFFSET 0.00 -0.1605 0.00
					CHANNELS 2 Zrotation Xrotation
					End Site
					{
						OFFSET 0.0040 -0.1068 0.0006
					}
				}
			}
		}
		JOINT LeftShoulder
		{
			OFFSET 0.0119 0.2289 -0.1181
			CHANNELS 3 Zrotation Xrotation Yrotation
			JOINT LeftElbow
			{
				OFFSET 0.00 -0.1475 0.00
				CHANNELS 2 Zrotation Yrotation
				JOINT LeftWrist
				{
					OFFSET 0.00 -0.1605 0.00
					CHANNELS 2 Zrotation Xrotation
					End Site
					{
						OFFSET 0.0040 -0.1068 -0.0006
					}
				}
			}
		}
	}
	JOINT RightHip
	{
		OFFSET 0.0316 -0.0424 0.0458
		CHANNELS 3 Zrotation Xrotation Yrotation
		JOINT RightKnee
		{
			OFFSET 0.00 -0.2438 0.00
			CHANNELS 1 Zrotation
			JOINT RightAnkle
			{
				OFFSET 0.00 -0.2449 0.00
				CHANNELS 3 Zrotation Xrotation Yrotation
				End Site
				{
					OFFSET 0.1237 -0.0542 0.0051
				}
			}
		}
	}
	JOINT LeftHip
	{
		OFFSET 0.0316 -0.0424 -0.0458
		CHANNELS 3 Zrotation Xrotation Yrotation
		JOINT LeftKnee
		{
			OFFSET 0.00 -0.2438 0.00
			CHANNELS 1 Zrotation
			JOINT LeftAnkle
			{
				OFFSET 0.00 -0.2449 0.00
				CHANNELS 3 Zrotation Xrotation Yrotation
				End Site
				{
					OFFSET 0.1237 -0.0542 -0.0051
				}
			}
		}
	}
}
MOTION
Frames: 30
Frame Time: 0.02
-0.06841 0.00549 0.2489 -221.34666 -32.99813 -4.47634 42.99541 0.04756 3.54479 3.24967 17.52331 -2.11994 93.19119 -57.26038 0.78 31.78054 62.32132 27.46331 -5.65296 -34.43817 16.43035 6.47817 40.16437 -86.63389 11.89737 1.70855 46.91238 -11.51602 -13.36395 -24.90063 -9.87077 -2.0494 -3.39119 35.90182 2.73024 8.96806 -24.41634 -6.62635 1.43476 2.95228
-0.06384 0.00645 0.24804 -222.75719 -33.82274 -5.60371 42.79535 -0.11131 1.84822 2.97766 18.49629 -2.11994 86.21658 -56.21696 -3.5353 37.72566 62.50495 26.76467 -5.59395 -35.47127 16.42706 6.5237 41.48373 -88.63954 12.68696 1.36564 48.12496 -10.68983 -13.67869 -24.8635 -9.84242 -1.78435 -3.26221 37.25418 3.92392 8.73647 -24.49911 -6.61458 1.51092 2.98676
-0.05928 0.00718 0.24718 -224.18411 -34.66361 -6.71126 42.76629 -0.24711 0.13619 2.44801 19.2904 -2.11994 78.57448 -54.58146 -8.94533 44.37686 63.6562 25.62535 -5.57716 -36.23187 16.16666 7.68726 42.47298 -92.93519 14.56157 0.67323 49.31783 -9.88326 -13.65139 -24.90455 -9.76673 -1.54114 -3.14219 38.61185 5.15628 8.76169 -24.60301 -6.60771 1.56481 3.01022
-0.05475 0.00801 0.24628 -225.58472 -35.47835 -7.81086 42.66418 -0.39431 -1.55171 2.02059 20.14287 -2.11994 71.27187 -53.20926 -13.79965 50.69378 64.37753 24.68463 -5.53146 -37.09948 16.06073 8.2704 43.60472 -96.04953 15.8707 0.16092 50.47795 -9.08536 -13.8009 -24.92078 -9.70941 -1.29852 -3.02298 39.94103 6.3491 8.62632 -24.69752 -6.59954 1.63246 3.04054
-0.05004 0.00887 0.24552 -227.06873 -36.37493 -8.99036 42.53798 -0.53894 -3.3239 1.65656 21.10159 -2.11994 63.77647 -51.86315 -18.92692 57.10348 65.04128 23.7519 -5.51813 -38.05105 15.8121 9.10721 44.78151 -99.71501 17.46116 -0.43476 51.81874 -8.20994 -13.87305 -24.89442 -9.66468 -1.00933 -2.88204 41.38661 7.64011 8.66026 -24.79231 -6.58725 1.68612 3.0637
-0.04573 0.00961 0.24447 -228.38163 -37.10308 -9.99446 42.50475 -0.68341 -4.91836 1.09883 21.79212 -2.11994 56.5441 -50.32268 -23.73254 63.46596 66.05747 22.70084 -5.451 -38.75758 15.78968 9.70928 45.7825 -102.7945 18.73434 -0.94244 52.77509 -7.50198 -14.01694 -24.97382 -9.58341 -0.82313 -2.78894 42.58712 8.73409 8.41279 -24.89136 -6.58475 1.76278 3.09875
-0.0425 0.01011 0.24269 -229.2161 -37.37145 -10.53192 42.6807 -0.82737 -6.03246 0.07217 21.79454 -2.11994 50.14809 -48.37468 -27.41348 69.61867 67.85381 21.38963 -5.22165 -38.85973 16.5012 9.2872 46.35878 -103.67324 18.84517 -1.11927 52.69466 -7.25102 -14.48316 -25.33171 -9.40467 -0.91636 -2.82544 43.12689 9.26936 7.27509 -24.99363 -6.60864 1.91231 3.17132
-0.03968 0.0105 0.24061 -229.8778 -37.46764 -10.88989 42.946 -0.97275 -6.96273 -1.14081 21.53007 -2.11994 44.05664 -46.25416 -30.7228 75.67669 69.96613 19.98164 -4.93852 -38.7218 17.43892 8.6149 46.77058 -103.89299 18.60622 -1.19679 52.22362 -7.16871 -15.02512 -25.79144 -9.19228 -1.11259 -2.90992 43.41564 9.60513 5.85678 -25.09989 -6.64218 2.08485 3.25581
-0.03669 0.01092 0.23864 -230.61906 -37.63649 -11.32091 43.17461 -1.12096 -7.96661 -2.27083 21.38128 -2.11994 37.86329 -44.22229 -34.17926 81.71479 71.90808 18.64419 -4.68336 -38.6885 18.24093 8.13103 47.26938 -104.43508 18.54436 -1.32216 51.91837 -7.00975 -15.50373 -26.20131 -9.00065 -1.26191 -2.97287 43.8077 10.03475 4.60099 -25.20633 -6.671 2.24416 3.3335
-0.03367 0.0114 0.23679 -231.35577 -37.83006 -11.78834 43.39231 -1.25375 -9.01417 -3.40388 21.25142 -2.11994 31.48414 -42.12594 -37.76952 88.04981 73.99658 17.17895 -4.41455 -38.66521 19.17303 7.37214 47.70746 -104.96047 18.44382 -1.44812 51.66329 -6.8505 -16.09018 -26.63135 -8.78435 -1.41294 -3.03522 44.24676 10.45232 3.20434 -25.3051 -6.70136 2.41452 3.41668
-0.03079 0.01173 0.2346 -232.06168 -37.93036 -12.13627 43.65208 -1.41924 -9.92558 -4.56991 21.01939 -2.11994 25.58283 -40.13138 -40.97427 93.72705 75.84216 15.96311 -4.16097 -38.56709 19.89132 7.10949 48.23437 -105.33367 18.3262 -1.54477 51.20958 -6.73285 -16.4776 -27.03964 -8.61196 -1.58391 -3.10975 44.52663 10.84714 2.03347 -25.42054 -6.73079 2.5675 3.49136
-0.02824 0.01168 0.23162 -232.71675 -37.82059 -12.20835 44.00278 -1.67518 -10.51584 -5.79327 20.58486 -2.11994 20.85219 -38.45791 -43.23281 97.66841 76.93677 15.45795 -3.96144 -38.32575 19.96367 8.29825 49.07099 -105.44489 18.24688 -1.58286 50.31715 -6.6786 -16.27024 -27.3876 -8.57018 -1.79054 -3.20914 44.44104 11.22651 1.53326 -25.58068 -6.75515 2.66801 3.54017
-0.02581 0.01147 0.22829 -233.34857 -37.62177 -12.16433 44.39249 -1.96385 -10.97317 -7.03939 20.05485 -2.11994 16.6117 -36.8973 -45.10408 100.93536 77.77138 15.20987 -3.77878 -38.01793 19.81441 9.98537 49.999 -105.41464 18.15688 -1.59343 49.23625 -6.66214 -15.8663 -27.70545 -8.57374 -2.01249 -3.31852 44.20128 11.58965 1.27198 -25.75744 -6.77839 2.75021 3.58003
-0.0233 0.01132 0.22508 -233.99579 -37.46013 -12.16713 44.76573 -2.23752 -11.48523 -8.26662 19.56012 -2.11994 12.19588 -35.28809 -47.13091 104.47153 78.72251 14.84715 -3.5894 -37.73875 19.76792 11.42638 50.87197 -105.43995 18.06671 -1.61614 48.23181 -6.6351 -15.57194 -28.02017 -8.5561 -2.22355 -3.42133 44.02398 11.96126 0.91502 -25.92671 -6.80209 2.84004 3.62365
-0.02091 0.0112 0.22202 -234.61512 -37.30646 -12.18962 45.13699 -2.51242 -12.01622 -9.53861 19.09049 -2.11994 7.58001 -33.65672 -49.23761 108.16772 79.69363 14.47065 -3.39557 -37.45736 19.72022 12.9442 51.79931 -105.48145 17.98708 -1.63734 47.2505 -6.58647 -15.19589 -28.4083 -8.53994 -2.45485 -3.53438 43.87088 12.32238 0.49692 -26.0958 -6.82583 2.93323 3.66876
-0.01829 0.01099 0.21857 -235.29109 -37.11719 -12.14479 45.52034 -2.7917 -12.4769 -10.71782 18.54905 -2.11994 3.50591 -32.10617 -51.08338 111.36469 80.55533 14.1863 -3.21392 -37.16831 19.61981 14.42105 52.63316 -105.46284 17.88632 -1.65617 46.18389 -6.58917 -14.94066 -28.63653 -8.53167 -2.64622 -3.62784 43.63298 12.70276 0.26281 -26.26922 -6.84974 3.01522 3.70875
-0.01512 0.01058 0.2142 -236.11442 -36.85274 -11.95254 45.92719 -3.08159 -12.79113 -11.65477 17.83709 -2.11994 0.70218 -30.70573 -52.36423 113.40541 81.19204 14.08521 -3.07855 -36.87214 19.42429 15.685 53.22308 -105.32145 17.73904 -1.67709 44.90846 -6.72605 -15.08154 -28.41716 -8.536 -2.72343 -3.66479 43.20817 13.15323 0.51354 -26.45016 -6.86875 3.06661 3.73437
-0.01169 0.01007 0.20944 -236.99924 -36.55602 -11.69563 46.34396 -3.37333 -13.03716 -12.4926 17.05678 -2.11994 -1.55391 -29.39227 -53.38534 114.95652 81.72424 14.06976 -2.95274 -36.57181 19.1827 16.88852 53.70989 -105.12569 17.57098 -1.6966 43.55972 -6.91138 -15.34741 -28.04007 -8.54624 -2.75941 -3.68142 42.70262 13.62278 0.93743 -26.63493 -6.88897 3.10789 3.75547
-0.00833 0.00958 0.20484 -237.86634 -36.27424 -11.46257 46.75662 -3.6602 -13.30558 -13.36255 16.30612 -2.11994 -3.99418 -28.06956 -54.48834 116.69482 82.29264 14.02148 -2.81088 -36.27657 18.96395 18.10507 54.22062 -104.95252 17.40775 -1.71606 42.25862 -7.07351 -15.54674 -27.74322 -8.55305 -2.81385 -3.70715 42.2293 14.07536 1.25856 -26.81814 -6.9123 3.15658 3.78026
-0.00521 0.00918 0.20031 -238.68904 -35.98865 -11.24853 47.1711 -3.96605 -13.60613 -14.2895 15.55754 -2.11994 -6.69459 -26.62232 -55.73386 118.55933 82.89638 13.95769 -2.71593 -35.96694 18.73076 19.39573 54.83084 -104.7838 17.26253 -1.73772 40.88832 -7.24511 -15.78182 -27.40849 -8.56569 -2.87013 -3.73395 41.77013 14.55995 1.68365 -27.00115 -6.92018 3.19328 3.7981
-0.00151 0.00857 0.19554 -239.6195 -35.70383 -10.9813 47.58099 -4.23132 -13.82459 -15.07198 14.79014 -2.11994 -8.72415 -25.45428 -56.6214 120.05263 83.40941 13.94162 -2.52919 -35.68521 18.51809 20.51631 55.20874 -104.59376 17.07616 -1.75446 39.64965 -7.40417 -15.97284 -27.11653 -8.5656 -2.91249 -3.75343 41.26332 14.98559 1.93751 -27.18528 -6.96048 3.25214 3.82912
0.00356 0.00746 0.19016 -240.82915 -35.43574 -10.58185 47.9973 -4.3928 -13.83999 -15.49504 13.98479 -2.11994 -9.08326 -25.03059 -56.62473 120.65035 83.65719 14.04833 -2.05329 -35.49871 18.38686 21.13493 54.96719 -104.36874 16.77194 -1.76127 38.77365 -7.54866 -16.02897 -26.97336 -8.54095 -2.92677 -3.75841 40.65601 15.21825 1.60932 -27.37264 -7.09116 3.38037 3.90061
0.00922 0.00613 0.18455 -242.14539 -35.16886 -10.13219 48.40394 -4.51146 -13.77444 -15.77301 13.16427 -2.11994 -8.7798 -24.88519 -56.2712 120.89284 83.82375 14.1961 -1.49071 -35.33724 18.27669 21.58986 54.4971 -104.12289 16.42858 -1.76272 38.03732 -7.6725 -16.03475 -26.88054 -8.50103 -2.92828 -3.7565 40.00333 15.39539 1.11142 -27.56159 -7.25463 3.53035 3.98506
0.01472 0.00489 0.17905 -243.41577 -34.89734 -9.70653 48.80126 -4.64394 -13.74217 -16.1074 12.35244 -2.11994 -8.75054 -24.61548 -56.05619 121.29525 84.05815 14.3166 -0.98976 -35.15388 18.14876 22.14931 54.13129 -103.88043 16.10966 -1.76454 37.25007 -7.78487 -16.05248 -26.76963 -8.45968 -2.93546 -3.7572 39.36344 15.61538 0.73739 -27.74793 -7.40182 3.66663 4.0616
0.0198 0.00371 0.17352 -244.6794 -34.64144 -9.27242 49.25878 -4.80073 -13.72253 -16.47903 11.52886 -2.11994 -8.81488 -24.34027 -55.93142 121.68717 84.16769 14.47867 -0.39578 -35.01621 18.05258 22.58355 53.75376 -103.66177 15.76302 -1.77489 36.40636 -7.98775 -16.11832 -26.63188 -8.45296 -2.94199 -3.75944 38.74921 15.76342 0.18346 -27.93879 -7.55319 3.81835 4.14626
0.02588 0.00234 0.16801 -245.97907 -34.3543 -8.84625 49.58609 -4.8962 -13.6579 -16.73926 10.72919 -2.11994 -8.53482 -24.14078 -55.53782 122.02227 84.50746 14.56017 0.02578 -34.78755 17.89725 23.23566 53.35574 -103.38916 15.46373 -1.76638 35.7154 -7.99565 -16.07329 -26.5654 -8.3716 -2.94712 -3.75705 38.07744 16.04565 -0.05249 -28.12506 -7.70573 3.94357 4.21746
0.03452 0.00051 0.16252 -247.37233 -33.97617 -8.44221 49.57588 -4.83692 -13.49191 -16.7331 9.98145 -2.11994 -7.46217 -24.0881 -54.4871 122.29746 85.61008 14.43168 -0.05487 -34.31634 17.56299 24.56712 52.8894 -102.9748 15.31695 -1.70583 35.40407 -7.47854 -15.70969 -26.67187 -8.0776 -2.95367 -3.74414 37.21276 16.73001 0.75387 -28.26186 -7.83424 3.98701 4.24558
0.04414 -0.00149 0.15708 -248.79326 -33.56765 -8.05006 49.43083 -4.71663 -13.28288 -16.61902 9.26203 -2.11994 -6.06898 -24.10078 -53.18004 122.52864 86.93051 14.21692 -0.31054 -33.74948 17.17104 26.11467 52.42409 -102.50694 15.21718 -1.62674 35.24333 -6.76485 -15.24057 -26.85057 -7.71097 -2.959 -3.72681 36.30216 17.54695 1.86414 -28.40231 -7.96556 4.00351 4.26011
0.05333 -0.0034 0.1517 -250.18904 -33.176 -7.66129 49.33513 -4.62158 -13.09236 -16.55139 8.54158 -2.11994 -4.82813 -24.07886 -51.99292 122.77559 88.07792 14.0252 -0.48353 -33.21733 16.81219 27.54142 52.00235 -102.06228 15.08781 -1.55694 35.01956 -6.1345 -14.835 -27.00546 -7.38419 -2.96368 -3.71126 35.44058 18.2925 2.75151 -28.56297 -8.10923 4.03475 4.28287
0.06247 -0.0054 0.14597 -251.64513 -32.77111 -7.23543 49.29121 -4.53551 -12.90484 -16.49053 7.77031 -2.11994 -3.53682 -24.08611 -50.77807 123.02667 89.52357 13.8994 -0.66898 -32.72501 16.42355 29.06617 51.38402 -101.62088 14.99116 -1.4832 34.77865 -5.52572 -14.36066 -27.12688 -7.02767 -2.97309 -3.69645 34.45204 19.08699 3.98335 -28.62497 -8.19987 4.05693 4.29798
